# xmcd
#
# Track frame offsets:
#	150
#	20132
#	38339
#	56204
#	74958
#	92362
#	110817
#	127402
#	143158
#	164311
#	178117
#	195292
#	210822
#	227242
#	245990
#	266462
#
# Disc length: 3829 seconds
#
# Revision: 3
# Processed by: cddbd v1.5.2PL0 Copyright (c) Steve Scherf et al.
# Submitted via: EasyCDDAExtractor 12.0.4.1
#
DISCID=f00ef310
DTITLE=Briohny - be me
DYEAR=2004
DGENRE=Pop
TTITLE0=อย่ากลับไป
TTITLE1=ข่าวร้าย
TTITLE2=ร่ม
TTITLE3=คิดถึง
TTITLE4=ฝันกลางวัน
TTITLE5=จะบอกว่ารัก
TTITLE6=ขอดาว
TTITLE7=เพื่ออะไร?
TTITLE8=ฉันไม่...
TTITLE9=จ๊ะจ๋าหน่อยนะจ๊ะ
TTITLE10=Sorry
TTITLE11=Colse-Up
TTITLE12=สิบคำถาม
TTITLE13=ผู้หญิง
TTITLE14=สัญญาพิษ
TTITLE15=ได้ไหม?
EXTD=
EXTT0=
EXTT1=
EXTT2=
EXTT3=
EXTT4=
EXTT5=
EXTT6=
EXTT7=
EXTT8=
EXTT9=
EXTT10=
EXTT11=
EXTT12=
EXTT13=
EXTT14=
EXTT15=
PLAYORDER=
